<svg style="opacity: 1" viewBox="0 0 2000 1000" width="2000" height="1000" xmlns="http://www.w3.org/2000/svg" xmlns:xlink="http://www.w3.org/1999/xlink" version="1.1"><rect x="0" y="0" width="2000" height="1000" fill="#FFFFFF"></rect><defs><linearGradient id="grad1_0" x1="50%" y1="0%" x2="100%" y2="100%"><stop offset="10%" stop-color="#c6beb3" stop-opacity="1"></stop><stop offset="90%" stop-color="#c6beb3" stop-opacity="1"></stop></linearGradient></defs><defs><linearGradient id="grad1_1" x1="50%" y1="0%" x2="100%" y2="100%"><stop offset="10%" stop-color="#c6beb3" stop-opacity="1"></stop><stop offset="90%" stop-color="#d1cbc2" stop-opacity="1"></stop></linearGradient></defs><defs><linearGradient id="grad1_2" x1="50%" y1="0%" x2="100%" y2="100%"><stop offset="10%" stop-color="#ddd8d1" stop-opacity="1"></stop><stop offset="90%" stop-color="#d1cbc2" stop-opacity="1"></stop></linearGradient></defs><defs><linearGradient id="grad1_3" x1="50%" y1="0%" x2="100%" y2="100%"><stop offset="10%" stop-color="#ddd8d1" stop-opacity="1"></stop><stop offset="90%" stop-color="#e8e5e0" stop-opacity="1"></stop></linearGradient></defs><defs><linearGradient id="grad1_4" x1="50%" y1="0%" x2="100%" y2="100%"><stop offset="10%" stop-color="#f3f2ef" stop-opacity="1"></stop><stop offset="90%" stop-color="#e8e5e0" stop-opacity="1"></stop></linearGradient></defs><defs><linearGradient id="grad1_5" x1="50%" y1="0%" x2="100%" y2="100%"><stop offset="10%" stop-color="#f3f2ef" stop-opacity="1"></stop><stop offset="90%" stop-color="#ffffff" stop-opacity="1"></stop></linearGradient></defs><defs><linearGradient id="grad2_0" x1="0%" y1="0%" x2="50%" y2="100%"><stop offset="10%" stop-color="#c6beb3" stop-opacity="1"></stop><stop offset="90%" stop-color="#c6beb3" stop-opacity="1"></stop></linearGradient></defs><defs><linearGradient id="grad2_1" x1="0%" y1="0%" x2="50%" y2="100%"><stop offset="10%" stop-color="#d1cbc2" stop-opacity="1"></stop><stop offset="90%" stop-color="#c6beb3" stop-opacity="1"></stop></linearGradient></defs><defs><linearGradient id="grad2_2" x1="0%" y1="0%" x2="50%" y2="100%"><stop offset="10%" stop-color="#d1cbc2" stop-opacity="1"></stop><stop offset="90%" stop-color="#ddd8d1" stop-opacity="1"></stop></linearGradient></defs><defs><linearGradient id="grad2_3" x1="0%" y1="0%" x2="50%" y2="100%"><stop offset="10%" stop-color="#e8e5e0" stop-opacity="1"></stop><stop offset="90%" stop-color="#ddd8d1" stop-opacity="1"></stop></linearGradient></defs><defs><linearGradient id="grad2_4" x1="0%" y1="0%" x2="50%" y2="100%"><stop offset="10%" stop-color="#e8e5e0" stop-opacity="1"></stop><stop offset="90%" stop-color="#f3f2ef" stop-opacity="1"></stop></linearGradient></defs><defs><linearGradient id="grad2_5" x1="0%" y1="0%" x2="50%" y2="100%"><stop offset="10%" stop-color="#ffffff" stop-opacity="1"></stop><stop offset="90%" stop-color="#f3f2ef" stop-opacity="1"></stop></linearGradient></defs><g transform="translate(2000, 0)"><path d="M0 700C-117.9 675.1 -235.9 650.2 -343.5 595C-451.1 539.7 -548.5 454.2 -606.2 350C-663.9 245.8 -682 122.9 -700 0L0 0Z" fill="#f9f8f7"></path><path d="M0 583.3C-98.3 562.6 -196.5 541.8 -286.2 495.8C-376 449.8 -457.1 378.5 -505.2 291.7C-553.3 204.8 -568.3 102.4 -583.3 0L0 0Z" fill="#eeebe8"></path><path d="M0 466.7C-78.6 450.1 -157.2 433.5 -229 396.6C-300.8 359.8 -365.7 302.8 -404.1 233.3C-442.6 163.9 -454.6 81.9 -466.7 0L0 0Z" fill="#e2ded8"></path><path d="M0 350C-59 337.5 -117.9 325.1 -171.7 297.5C-225.6 269.9 -274.3 227.1 -303.1 175C-332 122.9 -341 61.4 -350 0L0 0Z" fill="#d7d1c9"></path><path d="M0 233.3C-39.3 225 -78.6 216.7 -114.5 198.3C-150.4 179.9 -182.8 151.4 -202.1 116.7C-221.3 81.9 -227.3 41 -233.3 0L0 0Z" fill="#ccc4ba"></path><path d="M0 116.7C-19.7 112.5 -39.3 108.4 -57.2 99.2C-75.2 90 -91.4 75.7 -101 58.3C-110.7 41 -113.7 20.5 -116.7 0L0 0Z" fill="#c6beb3"></path></g><g transform="translate(0, 1000)"><path d="M0 -700C108.6 -658.9 217.2 -617.8 326 -564.6C434.8 -511.4 543.8 -446.1 606.2 -350C668.6 -253.9 684.3 -126.9 700 0L0 0Z" fill="#f9f8f7"></path><path d="M0 -583.3C90.5 -549.1 181 -514.9 271.7 -470.5C362.3 -426.2 453.2 -371.8 505.2 -291.7C557.2 -211.6 570.2 -105.8 583.3 0L0 0Z" fill="#eeebe8"></path><path d="M0 -466.7C72.4 -439.3 144.8 -411.9 217.3 -376.4C289.9 -341 362.6 -297.4 404.1 -233.3C445.7 -169.2 456.2 -84.6 466.7 0L0 0Z" fill="#e2ded8"></path><path d="M0 -350C54.3 -329.5 108.6 -308.9 163 -282.3C217.4 -255.7 271.9 -223.1 303.1 -175C334.3 -126.9 342.1 -63.5 350 0L0 0Z" fill="#d7d1c9"></path><path d="M0 -233.3C36.2 -219.6 72.4 -205.9 108.7 -188.2C144.9 -170.5 181.3 -148.7 202.1 -116.7C222.9 -84.6 228.1 -42.3 233.3 0L0 0Z" fill="#ccc4ba"></path><path d="M0 -116.7C18.1 -109.8 36.2 -103 54.3 -94.1C72.5 -85.2 90.6 -74.4 101 -58.3C111.4 -42.3 114 -21.2 116.7 0L0 0Z" fill="#c6beb3"></path></g></svg>