<svg style="opacity: .25" viewBox="0 0 2000 1000" width="2000" height="1000" xmlns="http://www.w3.org/2000/svg" xmlns:xlink="http://www.w3.org/1999/xlink" version="1.1"><rect x="0" y="0" width="2000" height="1000" fill="#FFFFFF"></rect><defs><linearGradient id="grad1_0" x1="50%" y1="0%" x2="100%" y2="100%"><stop offset="10%" stop-color="#c6beb3" stop-opacity="1"></stop><stop offset="90%" stop-color="#c6beb3" stop-opacity="1"></stop></linearGradient></defs><defs><linearGradient id="grad1_1" x1="50%" y1="0%" x2="100%" y2="100%"><stop offset="10%" stop-color="#c6beb3" stop-opacity="1"></stop><stop offset="90%" stop-color="#d9d3cc" stop-opacity="1"></stop></linearGradient></defs><defs><linearGradient id="grad1_2" x1="50%" y1="0%" x2="100%" y2="100%"><stop offset="10%" stop-color="#ece9e5" stop-opacity="1"></stop><stop offset="90%" stop-color="#d9d3cc" stop-opacity="1"></stop></linearGradient></defs><defs><linearGradient id="grad1_3" x1="50%" y1="0%" x2="100%" y2="100%"><stop offset="10%" stop-color="#ece9e5" stop-opacity="1"></stop><stop offset="90%" stop-color="#ffffff" stop-opacity="1"></stop></linearGradient></defs><defs><linearGradient id="grad2_0" x1="0%" y1="0%" x2="50%" y2="100%"><stop offset="10%" stop-color="#c6beb3" stop-opacity="1"></stop><stop offset="90%" stop-color="#c6beb3" stop-opacity="1"></stop></linearGradient></defs><defs><linearGradient id="grad2_1" x1="0%" y1="0%" x2="50%" y2="100%"><stop offset="10%" stop-color="#d9d3cc" stop-opacity="1"></stop><stop offset="90%" stop-color="#c6beb3" stop-opacity="1"></stop></linearGradient></defs><defs><linearGradient id="grad2_2" x1="0%" y1="0%" x2="50%" y2="100%"><stop offset="10%" stop-color="#d9d3cc" stop-opacity="1"></stop><stop offset="90%" stop-color="#ece9e5" stop-opacity="1"></stop></linearGradient></defs><defs><linearGradient id="grad2_3" x1="0%" y1="0%" x2="50%" y2="100%"><stop offset="10%" stop-color="#ffffff" stop-opacity="1"></stop><stop offset="90%" stop-color="#ece9e5" stop-opacity="1"></stop></linearGradient></defs><g transform="translate(2000, 0)"><path d="M0 900C-128.6 899.5 -257.2 899.1 -344.4 831.5C-431.6 763.9 -477.3 629.2 -533.2 533.2C-589 437.1 -655 379.8 -717.9 297.3C-780.7 214.9 -840.3 107.5 -900 0L0 0Z" fill="#f5f4f2"></path><path d="M0 675C-96.5 674.7 -192.9 674.3 -258.3 623.6C-323.7 572.9 -358 471.9 -399.9 399.9C-441.8 327.8 -491.3 284.8 -538.4 223C-585.5 161.2 -630.3 80.6 -675 0L0 0Z" fill="#e2ded8"></path><path d="M0 450C-64.3 449.8 -128.6 449.5 -172.2 415.7C-215.8 382 -238.6 314.6 -266.6 266.6C-294.5 218.6 -327.5 189.9 -358.9 148.7C-390.3 107.5 -420.2 53.7 -450 0L0 0Z" fill="#cfc9bf"></path><path d="M0 225C-32.2 224.9 -64.3 224.8 -86.1 207.9C-107.9 191 -119.3 157.3 -133.3 133.3C-147.3 109.3 -163.8 94.9 -179.5 74.3C-195.2 53.7 -210.1 26.9 -225 0L0 0Z" fill="#c6beb3"></path></g><g transform="translate(0, 1000)"><path d="M0 -900C100.3 -826.5 200.7 -753.1 288.5 -696.6C376.4 -640.1 451.9 -600.7 550.1 -550.1C648.4 -499.6 769.4 -438 831.5 -344.4C893.6 -250.9 896.8 -125.4 900 0L0 0Z" fill="#f5f4f2"></path><path d="M0 -675C75.2 -619.9 150.5 -564.8 216.4 -522.5C282.3 -480.1 338.9 -450.5 412.6 -412.6C486.3 -374.7 577 -328.5 623.6 -258.3C670.2 -188.2 672.6 -94.1 675 0L0 0Z" fill="#e2ded8"></path><path d="M0 -450C50.2 -413.3 100.3 -376.5 144.3 -348.3C188.2 -320.1 225.9 -300.3 275.1 -275.1C324.2 -249.8 384.7 -219 415.7 -172.2C446.8 -125.4 448.4 -62.7 450 0L0 0Z" fill="#cfc9bf"></path><path d="M0 -225C25.1 -206.6 50.2 -188.3 72.1 -174.2C94.1 -160 113 -150.2 137.5 -137.5C162.1 -124.9 192.3 -109.5 207.9 -86.1C223.4 -62.7 224.2 -31.4 225 0L0 0Z" fill="#c6beb3"></path></g></svg>